<?xml version="1.0" encoding="UTF-8"?>
<svg xmlns="http://www.w3.org/2000/svg" xmlns:xlink="http://www.w3.org/1999/xlink" width="32px" height="32px" viewBox="0 0 32 32" version="1.1">
<g id="surface1">
<path style="fill-rule:nonzero;fill:rgb(0%,45.490196%,70.19608%);fill-opacity:1;stroke-width:1;stroke-linecap:butt;stroke-linejoin:miter;stroke:rgb(76.078433%,83.92157%,87.843138%);stroke-opacity:1;stroke-miterlimit:4;" d="M 196.375 18.25 C 200.3125 37.4375 195.4375 56.0625 181.625 73.75 C 165.8125 94.0625 137.5 112.625 96.875 124.9375 C 62 135.5 38.4375 154.125 25.875 175.875 C 13.25 197.625 11.8125 222.25 20.125 243.375 C 34.9375 281.125 80.5 306.3125 141.375 290.8125 C 154.3125 286.75 168.875 280.8125 180.375 273.625 C 182.875 272.0625 185.1875 270.4375 187.3125 268.8125 C 184.4375 266.125 181.875 262.9375 179.8125 259.375 C 179.125 258.1875 178.5 257 178 255.75 C 164.9375 263.8125 148.25 272 126.4375 275.1875 C 78.5 284.125 47.9375 263.125 37.5 236.5625 C 31.25 220.625 32.125 202.25 42 185.25 C 51.875 168.25 71 152.3125 102.25 142.8125 C 145.5625 129.6875 177.3125 109.625 196.375 85.25 C 212.125 65.0625 218.75 41.5625 215.25 18.25 Z M 214.25 169.75 C 213.4375 169.75 212.625 169.75 211.8125 169.75 C 200.375 170.1875 188.8125 173.3125 178.1875 179.5 C 151.75 194.75 139.0625 223.625 143.9375 251.75 C 156.125 247.4375 166.0625 241.4375 174.8125 235.5625 C 176.25 224.5 182.75 214.3125 193.5625 208.0625 C 199.875 204.375 206.875 202.625 213.6875 202.5625 C 226.75 202.5 239.375 208.875 246.3125 221 C 257 239.4375 250.4375 263.9375 231.9375 274.5625 C 223.375 279.5625 213.875 280.5625 205 278.4375 C 200.5625 282.5 195.5625 286.1875 190.25 289.4375 C 185 292.75 179.375 295.75 173.625 298.4375 C 188.8125 309.125 207.5625 313.625 225.875 310.5625 L 298.25 435.9375 C 315.5625 465.875 340.8125 484.1875 367.0625 490.4375 C 393.3125 496.6875 419.8125 491.625 441.3125 478.375 C 484.3125 452 507.6875 390.875 474.8125 334 L 458.3125 305.375 L 458.125 305.125 C 438.5625 269.0625 413.125 244.5625 382.8125 229.8125 C 395.5625 275.75 400.1875 321.625 398.875 367.5625 L 427.5625 333.5625 L 432.5 330.5625 L 443 348.75 C 464.9375 386.75 446.5625 421.4375 421.875 436.625 C 386.1875 453.125 359.3125 448.625 337.25 413.5 L 265.5 289.0625 C 286.1875 266.6875 291.1875 232.0625 275.25 204.4375 C 262.25 181.9375 238.625 169.625 214.25 169.6875 Z M 214.25 169.75 " transform="matrix(0.0625,0,0,0.0625,0,0)"/>
</g>
</svg>
